<svg
  x="0px"
  y="0px"
  width="416px" height="286px" viewBox="0 0 416 286" enable-background="new 0 0 416 286" xml:space="preserve"
  xmlns="http://www.w3.org/2000/svg">
  <g class="logo-letters">
    <path class="logo-letters logo-reg"
          fill="#fff"
          d="M530.77 130.198c0-4.336 3.303-7.639 7.679-7.639c4.336 0 7.6 3.3 7.6 7.6 c0 4.375-3.302 7.678-7.638 7.678C534.071 137.9 530.8 134.6 530.8 130.198z M544.892 130.2 c0-3.739-2.784-6.484-6.443-6.484c-3.739 0-6.482 2.745-6.482 6.484c0 3.8 2.7 6.5 6.5 6.5 C542.105 136.7 544.9 134 544.9 130.198z M535.901 134.455c-0.238 0-0.356-0.12-0.356-0.358v-7.876 c0-0.239 0.118-0.358 0.356-0.358h3.145c1.711 0 2.7 1 2.7 2.509c0 1.151-0.557 2.026-1.671 2.348l1.671 3.3 c0.159 0.3 0 0.396-0.237 0.396h-0.677c-0.198 0-0.317-0.159-0.396-0.279l-1.672-3.302h-1.79c-0.079 0-0.118 0.04-0.118 0.1 v3.146c0 0.235-0.159 0.355-0.357 0.355L535.901 134.455L535.901 134.455z M540.516 128.368c0-0.836-0.438-1.354-1.513-1.354 h-2.027c-0.079 0-0.118 0.04-0.118 0.079v2.507c0 0.1 0 0.1 0.1 0.079h2.027 C540.078 129.7 540.5 129.2 540.5 128.368z"/>
    <path class="logo-letters logo-s"
          fill="#fff"
          d="M444.669 124.237c-0.81-0.812-0.81-2.021 0-2.828l11.516-12.121 c0.809-0.811 2.021-0.811 2.8 0c7.072 6.5 18.4 11.1 28.5 11.113c11.921 0 17.98-4.853 17.98-11.52 c0-5.855-3.437-9.493-16.16-10.706l-10.506-1.011c-19.799-2.021-29.898-12.12-29.898-28.684c0-18.791 13.536-30.711 37.777-30.711 c15.15 0 27.9 5.1 36.6 11.92c1.013 0.8 1 2 0.4 2.83l-9.896 11.918c-0.81 1.008-1.818 1.008-2.83 0.4 c-6.061-4.242-15.757-8.082-25.455-8.082c-9.694 0-14.747 4.244-14.747 10.102c0 5.7 3.4 9.1 16 10.305l10.504 1 c20.402 2 30.1 12.5 30.1 28.482c0 19.396-14.143 32.93-40.809 32.93C466.485 139.6 452.8 131.7 444.7 124.237z"/>
    <path class="logo-letters logo-i"
          fill="#fff"
          d="M412.581 21.612c-1.212 0-2.021-0.807-2.021-2.019V2.019c0-1.211 0.81-2.019 2.021-2.019 h18.589c1.212 0 2 0.8 2 2.019v17.575c0 1.212-0.806 2.019-2.018 2.019H412.581z M431.169 137.4 c1.212 0 2.017-0.809 2.017-2.019V42.017c0-1.214-0.805-2.021-2.017-2.021H412.58c-1.212 0-2.021 0.807-2.021 2.021v93.333 c0 1.2 0.8 2 2 2.019H431.169z"/>
    <path class="logo-letters logo-r"
          fill="#fff"
          d="M341.527 137.368c-1.212 0-2.021-0.809-2.021-2.019V42.017c0-1.214 0.809-2.021 2.021-2.021 h18.586c1.212 0 2 0.8 2 2.021v8.282h0.198c4.648-7.476 9.777-12.526 22.099-12.526c7.68 0 13.8 3 18.8 8.1 c1.012 1 1.2 1.8 0.4 2.83l-10.709 13.536c-0.808 1.009-1.789 1.177-2.824 0.402c-3.749-2.8-6.124-4.999-11.379-4.999 c-11.305 0-16.614 9.443-16.614 24.998v52.729c0 1.209-0.81 2.02-2.021 2.02L341.527 137.368L341.527 137.368z"/>
    <path class="logo-letters logo-e"
          fill="#fff"
          d="M242.215 112.685c-2.021-6.263-3.435-13.738-3.435-23.84s1.211-17.775 3.231-24.039 c5.454-16.968 20.401-26.867 39.803-26.867c19.993 0 34.5 10.3 40 26.867c2.223 6.9 3.2 13.5 3.2 29.3 c0 1.212-0.811 2.021-2.225 2.021h-59.995c-0.808 0-1.211 0.404-1.211 1.212c0 2.8 0.6 5.3 1.4 7.5 c3.229 9.5 10.9 14.7 21.8 14.748c10.907 0 17.979-4.042 22.828-9.294c1.012-1.009 2.019-1.212 3.028-0.403l11.92 10.5 c1.009 0.8 1 1.8 0.2 2.83c-8.282 9.694-22.019 16.562-39.998 16.562C262.22 139.8 247.7 129.7 242.2 112.685z M301.006 69.655c-2.628-7.879-9.896-12.524-18.989-12.524c-9.292 0-16.566 4.646-19.192 12.5 c-0.808 2.42-1.211 4.849-1.211 8.281c0 0.8 0.4 1.2 1.2 1.213h38.182c0.808 0 1.212-0.403 1.212-1.213 C302.218 74.5 301.8 72.1 301 69.655z"/>
    <path class="logo-letters logo-a"
          fill="#fff"
          d="M185.449 38.456c-15.953 0-28.45 5.689-36.59 11.805c-0.805 0.607-1.009 1.615-0.406 2.6 l10.111 12.083c0.602 1 1.8 1.2 2.8 0.402c4.648-3.633 10.973-7.48 21.881-7.48c16.361 0 21.6 5 21.6 16.2 l0.004 4.402c0 0.808-0.404 1.212-1.212 1.212h-19.8c-24.038 0-38.986 9.695-38.986 30.908c0 20.4 14.9 29.7 32.7 29.7 c13.735 0 22.829-4.646 27.475-11.312h0.199v7.07c0 1.2 0.8 2 2 2.02h16.97c1.213 0 2.021-0.809 2.021-2.02V72.639 C226.298 48.8 215.1 38.5 185.4 38.456z M204.886 105.323c0 11.108-7.675 16.562-21.615 16.6 c-10.908 0-16.768-4.04-16.768-12.12c0-9.093 6.465-13.131 21.01-13.131h16.161c0.808 0 1.2 0.4 1.2 1.213V105.323 L204.886 105.323z"/>
  </g>
  <path class="logo-globe"
        fill="#fff"
        d="M114.938 95.239l0.135 0.086c-0.345-0.278-0.534-0.469-0.43-1.322c-0.003 0-0.005 0-0.008 0 c0.283-2.208 0.451-4.449 0.451-6.732c0-5.654-0.901-11.099-2.534-16.219c0.004-0.001 0.006-0.002 0.01-0.003 c-0.204-0.653-0.26-0.792 0.457-1.409l-0.046 0.024c5.105-4.654 6.197-12.451 2.241-18.366c-3.959-5.915-11.578-7.881-17.827-4.943 c-0.001-0.004 0-0.008-0.002-0.014c-0.813 0.398-1.073 0.198-1.661-0.297l0.065 0.07c-9.317-7.793-21.292-12.502-34.362-12.502 c-0.524 0-1.045 0.024-1.567 0.041c0.008-0.006 0.014-0.01 0.022-0.017c-1.104 0.022-1.27-0.231-1.634-0.886l0.064 0.1 c-2.169-3.492-6.384-5.393-10.612-4.406c-4.241 0.992-7.185 4.58-7.567 8.688l-0.01-0.084c-0.073 0.665-0.117 1.022-0.78 1.3 c0.006 0 0 0 0 0.01c-14.044 6.372-24.872 18.59-29.331 33.559c-0.007-0.004-0.009-0.008-0.016-0.012 c-0.216 0.699-0.479 0.848-1.113 0.975c-0.043 0.009-0.087 0.016-0.131 0.025c-0.022 0.004-0.041 0.008-0.063 0.012h0.016 c-4.688 1.006-8.347 5.002-8.694 10.023c-0.354 5.1 2.8 9.6 7.4 11.189c0.643 0.2 0.9 0.4 1 1.2 c0.007-0.004 0.012-0.007 0.02-0.011c1.305 8.5 4.6 16.4 9.4 23.108c1.485 2.1 3.1 4 4.9 5.9 c6.1 6.4 13.7 11.2 22.3 13.98c2.084 0.7 4.2 1.2 6.4 1.625c3.237 0.6 6.6 0.9 10 0.9 c6.25 0 12.25-1.086 17.833-3.06c2.002-0.707 3.952-1.526 5.837-2.459c10.93-5.396 19.749-14.41 24.927-25.463 c0.003 0 0 0 0 0.01c0.333-0.697 0.589-0.844 1.329-0.941h-0.117c2.898-0.482 5.413-2.531 6.284-5.543 C118.429 100.4 117.3 97.2 114.9 95.239z M93.789 69.644L93.78 69.64c0.511 0.5 0.7 0.7 0.3 1.3 c-2.429 4.105-5.098 8.021-8.048 11.676c-0.35 0.375-0.617 0.424-1.471 0.084c-0.001 0 0 0.004-0.001 0 c-5.943-2.412-12.13-4.289-18.493-5.572l0.098 0.011c-0.9-0.177-1.019-0.231-1.152-1.392c-0.006 0.002-0.008 0.008-0.014 0 c-0.515-4.61-1.333-9.184-2.468-13.698c0.006 0 0 0 0 0.001c-0.182-0.738-0.107-0.916 0.432-1.048 c5.497-0.954 11.133-1.474 16.877-1.474c2.895 0 5.8 0.1 8.7 0.418c0.436 0.1 0.6 0.2 0.8 1.1 c0.001 0 0 0 0.004-0.001c0.28 2.1 1 4.1 2.2 5.96C92.239 68 93 68.9 93.8 69.644z M69.525 98.7 c-0.497 0.304-0.787 0.162-1.163-0.16l0.062 0.064c-0.761-0.634-1.595-1.177-2.492-1.615c0.003-0.004 0.005-0.004 0.009-0.008 c-0.715-0.323-0.715-0.461-0.62-1.42l-0.017 0.067c0.31-3.783 0.421-7.563 0.316-11.337l0.014 0.1 c-0.02-0.653 0.08-0.854 0.636-0.778c4.833 1.1 9.6 2.5 14.1 4.215c0.498 0.2 0.6 0.5 0.2 0.9 C77.174 92.4 73.5 95.7 69.5 98.745z M91.183 50.508c0.504 0.5 0.4 0.7 0.1 1.3 c0.006 0 0 0 0 0.007c-0.25 0.404-0.476 0.819-0.683 1.244l0.013-0.082c-0.241 0.426-0.104 0.85-1.443 0.7 c0 0 0 0 0 0.008c-3.104-0.286-6.214-0.449-9.321-0.449c-6.269 0-12.418 0.578-18.408 1.6 c0.001-0.002 0.003-0.004 0.004-0.008c-0.784 0.137-1.03-0.074-1.254-0.744l0.01 0.056c-0.947-2.791-2.026-5.546-3.216-8.269 c0.003 0 0 0 0 0.004c-0.232-0.539-0.291-0.682 0.197-1.205c0.016-0.018 0.032-0.033 0.048-0.052 c0.01-0.011 0.017-0.019 0.027-0.028l-0.005 0.002c0.979-1.096 1.704-2.403 2.117-3.821c0 0 0 0 0 0 c0.2-0.61 0.211-0.84 0.985-0.882c0.343-0.018 0.687-0.031 1.032-0.031C72.7 39.9 83 43.9 91.2 50.508z M59.007 95.1 c-0.07 0.478-0.245 0.699-1.009 0.875c0 0 0 0 0 0.004c-1.524 0.295-2.945 0.869-4.219 1.658l0.025-0.021 c-0.052 0.033-0.092 0.06-0.139 0.091c-0.073 0.046-0.146 0.092-0.218 0.142c-0.62 0.377-0.782 0.262-1.554-0.27 c-0.002 0.005-0.003 0.009-0.006 0.015c-8.141-5.647-17.064-10.118-26.589-13.254c0.008-0.005 0.017-0.005 0.025-0.01 c-0.862-0.291-0.871-0.515-0.275-0.693c6.771-1.47 13.66-2.229 20.602-2.229c4.357 0 8.7 0.3 12.9 0.9 c0.39 0.1 0.6 0.2 0.7 0.847C59.432 87.1 59.3 91.1 59 95.104z M55.485 62.7 c0.428-0.072 0.7 0 0.8 0.529c1.024 4 1.8 8 2.3 12.071c0.03 0.664-0.248 0.644-1.063 0.544l0.077 0 c-3.951-0.461-7.948-0.723-11.986-0.723c-7.057 0-14.061 0.732-20.95 2.157c0.001-0.005 0.006-0.007 0.007-0.013 c-0.846 0.173-1.093 0.158-0.614-0.229C33.521 70.5 44.1 65.6 55.5 62.655z M41.59 44.3 c0.373-0.125 0.67-0.062 1.1 0.488l-0.018-0.045c1.847 2 4.5 3.2 7.3 3.176l-0.036 0 c0.712-0.036 1.1 0.1 1.4 0.779c0.979 2.3 1.9 4.5 2.7 6.836c0.271 0.816-0.117 0.963-0.888 1.162l0.015 0 c-12.994 3.43-25.034 9.325-35.576 17.209c-0.002-0.002-0.002-0.004-0.004-0.007c-0.566 0.423-0.859 0.353-1.154 0.2 c-0.243-0.14-0.316-0.265-0.207-0.726C20.169 60.5 29.5 49.9 41.6 44.317z M14.728 95 c-0.081-0.576 0.048-0.797 0.567-0.998h-0.021c1.88-0.783 3.503-2.063 4.695-3.699l-0.005 0.013c0.419-0.62 0.678-0.769 1.35-0.589 c9.707 3 18.8 7.4 27 13.117c0.552 0.5 0.4 0.8 0.2 1.414l0.02-0.026c-0.46 1.306-0.724 2.702-0.724 4.2 c0 0.6 0.1 1.1 0.1 1.672l-0.015-0.037c0.132 0.8 0.1 1.184-0.614 1.514c-6.825 2.797-14.006 4.838-21.435 6 c-0.406 0.039-0.757-0.039-1.229-0.576C19.571 110.8 16.1 103.2 14.7 94.974z M48.526 132.1 c-0.231 0.386-0.44 0.503-0.913 0.401c-6.095-1.864-11.663-4.926-16.445-8.911c-0.34-0.349-0.264-0.566 0.376-0.698l-0.128 0 c6.401-1.33 12.606-3.256 18.557-5.715c0 0.004-0.001 0.006-0.002 0.01c0.821-0.334 1.212-0.262 1.6 0.108l-0.009-0.017 c0.539 0.5 1.1 1 1.8 1.451l-0.011-0.006c0.306 0.2 0.7 0.4 0.5 1 C52.324 124 50.6 128.2 48.5 132.131z M55.316 134.208c-0.549-0.113-0.56-0.41-0.277-0.986l-0.035 0 c1.782-3.648 3.361-7.42 4.726-11.298c0.004 0 0 0 0 0.009c0.333-0.93 0.555-0.99 1.294-1.002l-0.02-0.004 c1.657-0.08 3.225-0.48 4.653-1.142l-0.02 0.015c0.56-0.273 1.002-0.395 1.5 0.088c2.009 2.4 3.9 4.8 5.7 7.4 c0.959 1.4 1.9 2.8 2.7 4.203c0.298 0.5 0.3 0.75-0.164 0.951c-4.437 1.383-9.143 2.145-14.032 2.1 C59.355 134.6 57.3 134.5 55.3 134.208z M82.816 129.487c-0.7 0.307-0.943 0.156-1.377-0.551 c-0.003 0.002-0.005 0.004-0.009 0.008c-1.072-1.769-2.177-3.521-3.369-5.23c-1.951-2.811-4.049-5.479-6.243-8.046 c0.003-0.001 0.005-0.001 0.009-0.002c-0.585-0.64-0.537-0.909-0.239-1.47c0.003-0.006 0.007-0.012 0.01-0.02 c0.016-0.027 0.029-0.056 0.046-0.086l-0.012 0.018c0.884-1.724 1.395-3.668 1.395-5.738c0-1.053-0.135-2.072-0.38-3.049 l0.011 0.021c-0.185-0.667-0.237-0.875 0.347-1.319c-0.006-0.005-0.01-0.005-0.016-0.01c4.931-3.74 9.534-7.921 13.747-12.516 l-0.103 0.141c0.426-0.468 0.739-0.723 1.371-0.484c4.819 2.3 9.4 5.1 13.8 8.121c0.419 0.4 0.4 0.6 0.3 1.3 l0.006-0.018c-0.213 2.1 0.5 4.2 1.8 5.81l-0.026-0.019c0.408 0.4 0.5 0.7 0.2 1.3 C99.646 117 92.1 124.8 82.8 129.487z M108.423 92.871c-0.065 0.454-0.167 0.745-0.663 0.9 c0.003 0 0 0 0 0.021c-0.427 0.12-0.839 0.274-1.236 0.464l0.086-0.072c-0.491 0.307-0.748 0.265-1.229-0.07 c-0.002 0.003-0.002 0.005-0.004 0.008c-4.114-2.889-8.422-5.495-12.914-7.771c0.003-0.006 0.006-0.008 0.009-0.014 c-0.532-0.271-0.64-0.798-0.316-1.21l-0.04 0.03c2.797-3.6 5.356-7.416 7.689-11.407c0.004 0 0 0 0 0 c0.235-0.396 0.54-0.671 1.252-0.531l-0.103-0.041c1.604 0.3 3.2 0.3 4.9 0l-0.107 0 c0.583-0.108 0.9 0.1 1 0.604c1.274 4.3 2 8.8 2 13.474C108.771 89.2 108.6 91 108.4 92.871z"></path>
</svg>
